<svg xmlns="http://www.w3.org/2000/svg" viewBox="0 0 64 64"><rect width="64" height="64" rx="12" fill="#161210"/><g transform="translate(14.11,9.00) scale(0.6774)"><path fill="#B0562A" fill-rule="nonzero" d="M9.25127619,31.244 L11.8013333,31.244 C12.6937524,31.244 13.0763619,30.8655 13.0763619,29.981 L13.0763619,14.1945 C13.0763619,12.9735 13.3312667,12.9315 14.3937905,12.9315 L20.9385333,12.9315 C21.8309524,12.9315 22.2130571,12.553 22.2130571,11.6685 L22.2130571,9.3535 C22.2130571,8.469 21.8309524,8.0905 20.9385333,8.0905 L12.6508476,8.0905 C9.46378095,8.0905 7.97675238,8.806 7.97675238,12.553 L7.97675238,29.981 C7.97675238,30.8655 8.35885714,31.244 9.25127619,31.244"/><path fill="#B0562A" fill-rule="nonzero" d="M30.3291238,12.9315 L38.4891048,12.9315 C39.5516286,12.9315 39.8065333,12.9735 39.8065333,14.1945 L39.8065333,25.14 C39.8065333,26.3605 39.5516286,26.403 38.4891048,26.403 L31.6465524,26.403 C30.5845333,26.403 30.3291238,26.3605 30.3291238,25.14 L30.3291238,12.9315 Z M29.9041143,31.244 L40.2315429,31.244 C43.4186095,31.244 44.9061429,30.5285 44.9061429,26.782 L44.9061429,12.553 C44.9061429,8.806 43.4186095,8.0905 40.2315429,8.0905 L30.3291238,8.0905 L30.3291238,1.2625 C30.3291238,0.3785 29.947019,0 29.0546,0 L26.5045429,0 C25.6121238,0 25.2295143,0.3785 25.2295143,1.2625 L25.2295143,26.782 C25.2295143,30.5285 26.7170476,31.244 29.9041143,31.244"/><path fill="#B0562A" fill-rule="nonzero" d="M24.3446667,33.9155 L9.4299619,33.9155 C8.5012,33.9155 8.02975238,34.382 8.02975238,35.302 L8.02975238,37.2365 C8.02975238,38.1565 8.5012,38.623 9.4299619,38.623 L20.195019,38.623 L9.24521905,58.567 C8.97113333,59.0485 9.04533333,59.3725 9.15537143,59.5585 C9.26742857,59.7485 9.52334286,59.975 10.1043238,59.975 L12.9456286,59.975 C13.8531905,59.975 14.3917714,59.659 14.8031524,58.8845 L25.1699524,39.543 C25.5566,38.854 25.7443714,38.157 25.7443714,37.4125 L25.7443714,35.302 C25.7443714,34.382 25.2734286,33.9155 24.3446667,33.9155"/><path fill="#B0562A" fill-rule="nonzero" d="M44.931381,43.7445 L44.931381,37.9755 C44.931381,34.5625 43.440819,33.916 40.6908762,33.916 L31.0317524,33.916 C28.2813048,33.916 26.7907429,34.5625 26.7907429,37.9755 L26.7907429,40.79 C26.7907429,41.71 27.2616857,42.1765 28.1904476,42.1765 L30.3210476,42.1765 C31.2503143,42.1765 31.7212571,41.71 31.7212571,40.79 L31.7212571,39.3475 C31.7212571,38.6235 31.7212571,38.6235 32.4874857,38.6235 L39.2346381,38.6235 C40.0008667,38.6235 40.0008667,38.6235 40.0008667,39.3475 L40.0008667,43.9205 C40.0008667,44.6095 40.0008667,44.6095 39.2346381,44.6095 L35.4347905,44.6095 C34.5060286,44.6095 34.0350857,45.0755 34.0350857,45.996 L34.0350857,47.9305 C34.0350857,48.8505 34.5060286,49.317 35.4347905,49.317 L39.2346381,49.317 C40.0008667,49.317 40.0008667,49.317 40.0008667,50.0415 L40.0008667,54.579 C40.0008667,55.268 40.0008667,55.268 39.2346381,55.268 L32.4874857,55.268 C31.7212571,55.268 31.7212571,55.268 31.7212571,54.579 L31.7212571,53.1015 C31.7212571,52.1815 31.2503143,51.715 30.3210476,51.715 L28.1904476,51.715 C27.2616857,51.715 26.7907429,52.1815 26.7907429,53.1015 L26.7907429,55.9155 C26.7907429,59.3285 28.2813048,59.9755 31.0317524,59.9755 L40.6908762,59.9755 C43.440819,59.9755 44.931381,59.3285 44.931381,55.9155 L44.931381,50.393 C44.931381,48.7425 44.5775429,47.6855 43.818381,47.079 C44.5770381,46.449 44.931381,45.3855 44.931381,43.7445"/><path fill="#B0562A" fill-rule="nonzero" d="M43.9733429,0 L34.4081048,0 C33.9245429,0 33.5308286,0.385 33.5308286,0.8585 L33.5308286,3.169 C33.5308286,3.6425 33.9245429,4.0275 34.4081048,4.0275 L43.9733429,4.0275 C46.584981,4.0275 48.7095238,6.106 48.7095238,8.6615 L48.7095238,59.243 C48.7095238,61.7985 46.584981,63.877 43.9733429,63.877 L8.85251429,63.877 C6.24087619,63.877 4.11582857,61.7985 4.11582857,59.243 L4.11582857,8.6615 C4.11582857,6.106 6.24087619,4.0275 8.85251429,4.0275 L21.5927048,4.0275 C22.0762667,4.0275 22.469981,3.6425 22.469981,3.169 L22.469981,0.8585 C22.4704857,0.385 22.0762667,0 21.5927048,0 L8.85251429,0 C3.97146667,0 0.000504761905,3.8855 0.000504761905,8.6615 L0.000504761905,59.243 C0.000504761905,64.019 3.97146667,67.9045 8.85301905,67.9045 L43.9733429,67.9045 C48.8548952,67.9045 52.8258571,64.019 52.8258571,59.243 L52.8258571,8.6615 C52.8258571,3.8855 48.8543905,0 43.9733429,0"/></g></svg>